<svg data-v-fde0c5aa="" xmlns="http://www.w3.org/2000/svg" viewBox="0 0 300 300" class="iconAbove"><!----><defs data-v-fde0c5aa=""><!----></defs><rect data-v-fde0c5aa="" fill="#80CEA7" x="0" y="0" width="300px" height="300px" class="logo-background-square"></rect><defs data-v-fde0c5aa=""><!----></defs><g data-v-fde0c5aa="" id="c8fd22d4-5f87-46d5-b74a-21de384c8bd9" fill="#FFFFFF" transform="matrix(2.3531541770918603,0,0,2.3531541770918603,18.282197405840087,158.23522421920234)"><path d="M6.78 12.61L6.78 12.61L6.78 12.61Q6.59 12.77 6.31 12.86L6.31 12.86L6.31 12.86Q6.02 12.95 5.64 12.95L5.64 12.95L5.64 12.95Q5.14 12.95 4.81 12.82L4.81 12.82L4.81 12.82Q4.48 12.70 4.38 12.39L4.38 12.39L4.38 12.39Q3.99 11.16 3.74 10.40L3.74 10.40L3.74 10.40Q3.49 9.63 3.35 9.06L3.35 9.06L3.28 9.06L3.28 9.06Q3.23 9.88 3.21 10.56L3.21 10.56L3.21 10.56Q3.19 11.24 3.19 11.89L3.19 11.89L3.19 11.89Q3.18 12.53 3.16 13.19L3.16 13.19L3.16 13.19Q3.14 13.85 3.09 14.64L3.09 14.64L3.09 14.64Q2.91 14.71 2.62 14.76L2.62 14.76L2.62 14.76Q2.32 14.81 2.03 14.81L2.03 14.81L2.03 14.81Q1.41 14.81 1.07 14.62L1.07 14.62L1.07 14.62Q0.73 14.42 0.73 13.90L0.73 13.90L1.13 6.76L1.13 6.76Q1.25 6.58 1.62 6.37L1.62 6.37L1.62 6.37Q2.00 6.16 2.69 6.16L2.69 6.16L2.69 6.16Q3.43 6.16 3.85 6.39L3.85 6.39L3.85 6.39Q4.27 6.62 4.47 7.14L4.47 7.14L4.47 7.14Q4.59 7.48 4.74 7.91L4.74 7.91L4.74 7.91Q4.89 8.34 5.03 8.81L5.03 8.81L5.03 8.81Q5.18 9.27 5.32 9.72L5.32 9.72L5.32 9.72Q5.46 10.18 5.57 10.54L5.57 10.54L5.64 10.54L5.64 10.54Q5.98 9.37 6.31 8.27L6.31 8.27L6.31 8.27Q6.65 7.17 6.93 6.43L6.93 6.43L6.93 6.43Q7.14 6.31 7.47 6.24L7.47 6.24L7.47 6.24Q7.80 6.16 8.20 6.16L8.20 6.16L8.20 6.16Q8.89 6.16 9.32 6.36L9.32 6.36L9.32 6.36Q9.76 6.57 9.83 6.94L9.83 6.94L9.83 6.94Q9.88 7.22 9.95 7.81L9.95 7.81L9.95 7.81Q10.01 8.39 10.08 9.11L10.08 9.11L10.08 9.11Q10.15 9.84 10.22 10.65L10.22 10.65L10.22 10.65Q10.29 11.47 10.35 12.22L10.35 12.22L10.35 12.22Q10.42 12.96 10.46 13.59L10.46 13.59L10.46 13.59Q10.50 14.21 10.51 14.55L10.51 14.55L10.51 14.55Q10.28 14.69 10.02 14.75L10.02 14.75L10.02 14.75Q9.76 14.81 9.35 14.81L9.35 14.81L9.35 14.81Q8.82 14.81 8.46 14.63L8.46 14.63L8.46 14.63Q8.09 14.45 8.06 13.92L8.06 13.92L8.06 13.92Q7.98 12.39 7.96 11.17L7.96 11.17L7.96 11.17Q7.94 9.95 7.90 9.13L7.90 9.13L7.83 9.13L7.83 9.13Q7.69 9.67 7.42 10.50L7.42 10.50L7.42 10.50Q7.15 11.33 6.78 12.61ZM18.93 11.30L18.93 11.30L18.93 11.30Q18.93 12.17 18.66 12.85L18.66 12.85L18.66 12.85Q18.40 13.52 17.91 13.99L17.91 13.99L17.91 13.99Q17.43 14.45 16.76 14.69L16.76 14.69L16.76 14.69Q16.09 14.92 15.26 14.92L15.26 14.92L15.26 14.92Q14.43 14.92 13.76 14.67L13.76 14.67L13.76 14.67Q13.09 14.42 12.61 13.95L12.61 13.95L12.61 13.95Q12.12 13.48 11.86 12.81L11.86 12.81L11.86 12.81Q11.59 12.14 11.59 11.30L11.59 11.30L11.59 11.30Q11.59 10.47 11.86 9.80L11.86 9.80L11.86 9.80Q12.12 9.13 12.61 8.66L12.61 8.66L12.61 8.66Q13.09 8.19 13.76 7.94L13.76 7.94L13.76 7.94Q14.43 7.69 15.26 7.69L15.26 7.69L15.26 7.69Q16.09 7.69 16.76 7.95L16.76 7.95L16.76 7.95Q17.43 8.20 17.91 8.67L17.91 8.67L17.91 8.67Q18.40 9.14 18.66 9.81L18.66 9.81L18.66 9.81Q18.93 10.49 18.93 11.30ZM14.03 11.30L14.03 11.30L14.03 11.30Q14.03 12.15 14.36 12.61L14.36 12.61L14.36 12.61Q14.69 13.06 15.27 13.06L15.27 13.06L15.27 13.06Q15.86 13.06 16.18 12.60L16.18 12.60L16.18 12.60Q16.49 12.14 16.49 11.30L16.49 11.30L16.49 11.30Q16.49 10.46 16.17 10.00L16.17 10.00L16.17 10.00Q15.85 9.55 15.26 9.55L15.26 9.55L15.26 9.55Q14.67 9.55 14.35 10.00L14.35 10.00L14.35 10.00Q14.03 10.46 14.03 11.30ZM19.80 11.30L19.80 11.30L19.80 11.30Q19.80 10.37 20.08 9.70L20.08 9.70L20.08 9.70Q20.36 9.02 20.85 8.57L20.85 8.57L20.85 8.57Q21.35 8.12 22.02 7.90L22.02 7.90L22.02 7.90Q22.68 7.69 23.45 7.69L23.45 7.69L23.45 7.69Q23.73 7.69 24.00 7.74L24.00 7.74L24.00 7.74Q24.26 7.78 24.43 7.85L24.43 7.85L24.43 5.59L24.43 5.59Q24.57 5.54 24.88 5.50L24.88 5.50L24.88 5.50Q25.19 5.45 25.51 5.45L25.51 5.45L25.51 5.45Q25.82 5.45 26.06 5.49L26.06 5.49L26.06 5.49Q26.31 5.53 26.47 5.66L26.47 5.66L26.47 5.66Q26.64 5.78 26.73 6.00L26.73 6.00L26.73 6.00Q26.81 6.22 26.81 6.57L26.81 6.57L26.81 13.20L26.81 13.20Q26.81 13.86 26.19 14.25L26.19 14.25L26.19 14.25Q25.79 14.52 25.14 14.72L25.14 14.72L25.14 14.72Q24.50 14.92 23.66 14.92L23.66 14.92L23.66 14.92Q22.75 14.92 22.03 14.67L22.03 14.67L22.03 14.67Q21.31 14.42 20.81 13.94L20.81 13.94L20.81 13.94Q20.31 13.47 20.06 12.80L20.06 12.80L20.06 12.80Q19.80 12.14 19.80 11.30ZM23.77 9.55L23.77 9.55L23.77 9.55Q23.02 9.55 22.61 9.98L22.61 9.98L22.61 9.98Q22.20 10.42 22.20 11.30L22.20 11.30L22.20 11.30Q22.20 12.17 22.58 12.61L22.58 12.61L22.58 12.61Q22.96 13.05 23.67 13.05L23.67 13.05L23.67 13.05Q23.93 13.05 24.13 12.97L24.13 12.97L24.13 12.97Q24.33 12.89 24.44 12.80L24.44 12.80L24.44 9.72L24.44 9.72Q24.16 9.55 23.77 9.55ZM31.89 14.92L31.89 14.92L31.89 14.92Q31.07 14.92 30.36 14.69L30.36 14.69L30.36 14.69Q29.65 14.46 29.13 14.00L29.13 14.00L29.13 14.00Q28.60 13.54 28.30 12.84L28.30 12.84L28.30 12.84Q28.00 12.14 28.00 11.20L28.00 11.20L28.00 11.20Q28.00 10.28 28.30 9.61L28.30 9.61L28.30 9.61Q28.60 8.95 29.09 8.52L29.09 8.52L29.09 8.52Q29.58 8.09 30.21 7.89L30.21 7.89L30.21 7.89Q30.84 7.69 31.50 7.69L31.50 7.69L31.50 7.69Q32.24 7.69 32.85 7.91L32.85 7.91L32.85 7.91Q33.46 8.13 33.90 8.53L33.90 8.53L33.90 8.53Q34.34 8.92 34.59 9.46L34.59 9.46L34.59 9.46Q34.83 10.01 34.83 10.65L34.83 10.65L34.83 10.65Q34.83 11.13 34.57 11.38L34.57 11.38L34.57 11.38Q34.30 11.63 33.82 11.70L33.82 11.70L30.37 12.22L30.37 12.22Q30.52 12.68 31.00 12.92L31.00 12.92L31.00 12.92Q31.47 13.15 32.09 13.15L32.09 13.15L32.09 13.15Q32.66 13.15 33.17 13.00L33.17 13.00L33.17 13.00Q33.68 12.85 34.01 12.66L34.01 12.66L34.01 12.66Q34.23 12.80 34.38 13.05L34.38 13.05L34.38 13.05Q34.54 13.30 34.54 13.58L34.54 13.58L34.54 13.58Q34.54 14.21 33.95 14.52L33.95 14.52L33.95 14.52Q33.50 14.76 32.94 14.84L32.94 14.84L32.94 14.84Q32.38 14.92 31.89 14.92ZM31.50 9.42L31.50 9.42L31.50 9.42Q31.16 9.42 30.92 9.53L30.92 9.53L30.92 9.53Q30.67 9.65 30.52 9.82L30.52 9.82L30.52 9.82Q30.37 10.00 30.29 10.21L30.29 10.21L30.29 10.21Q30.21 10.43 30.20 10.65L30.20 10.65L32.59 10.26L32.59 10.26Q32.55 9.98 32.28 9.70L32.28 9.70L32.28 9.70Q32.02 9.42 31.50 9.42ZM38.36 9.91L38.36 14.69L38.36 14.69Q38.22 14.73 37.92 14.77L37.92 14.77L37.92 14.77Q37.62 14.81 37.30 14.81L37.30 14.81L37.30 14.81Q36.99 14.81 36.74 14.77L36.74 14.77L36.74 14.77Q36.50 14.73 36.33 14.60L36.33 14.60L36.33 14.60Q36.16 14.48 36.07 14.26L36.07 14.26L36.07 14.26Q35.98 14.04 35.98 13.69L35.98 13.69L35.98 9.49L35.98 9.49Q35.98 9.17 36.10 8.94L36.10 8.94L36.10 8.94Q36.22 8.71 36.44 8.53L36.44 8.53L36.44 8.53Q36.67 8.34 37.00 8.20L37.00 8.20L37.00 8.20Q37.32 8.05 37.70 7.94L37.70 7.94L37.70 7.94Q38.08 7.83 38.49 7.76L38.49 7.76L38.49 7.76Q38.89 7.70 39.30 7.70L39.30 7.70L39.30 7.70Q39.97 7.70 40.36 7.96L40.36 7.96L40.36 7.96Q40.75 8.22 40.75 8.81L40.75 8.81L40.75 8.81Q40.75 9.00 40.70 9.19L40.70 9.19L40.70 9.19Q40.64 9.38 40.56 9.53L40.56 9.53L40.56 9.53Q40.26 9.53 39.96 9.56L39.96 9.56L39.96 9.56Q39.65 9.59 39.35 9.65L39.35 9.65L39.35 9.65Q39.06 9.70 38.80 9.77L38.80 9.77L38.80 9.77Q38.54 9.83 38.36 9.91L38.36 9.91ZM46.05 13.69L46.05 10.39L46.05 10.39Q46.05 9.95 45.80 9.75L45.80 9.75L45.80 9.75Q45.56 9.55 45.14 9.55L45.14 9.55L45.14 9.55Q44.86 9.55 44.58 9.62L44.58 9.62L44.58 9.62Q44.31 9.69 44.11 9.83L44.11 9.83L44.11 14.69L44.11 14.69Q43.97 14.73 43.67 14.77L43.67 14.77L43.67 14.77Q43.37 14.81 43.05 14.81L43.05 14.81L43.05 14.81Q42.74 14.81 42.50 14.77L42.50 14.77L42.50 14.77Q42.25 14.73 42.08 14.60L42.08 14.60L42.08 14.60Q41.92 14.48 41.83 14.26L41.83 14.26L41.83 14.26Q41.73 14.04 41.73 13.69L41.73 13.69L41.73 9.49L41.73 9.49Q41.73 9.11 41.90 8.88L41.90 8.88L41.90 8.88Q42.06 8.64 42.34 8.44L42.34 8.44L42.34 8.44Q42.81 8.11 43.53 7.90L43.53 7.90L43.53 7.90Q44.25 7.69 45.14 7.69L45.14 7.69L45.14 7.69Q46.72 7.69 47.57 8.38L47.57 8.38L47.57 8.38Q48.43 9.07 48.43 10.30L48.43 10.30L48.43 14.69L48.43 14.69Q48.29 14.73 47.98 14.77L47.98 14.77L47.98 14.77Q47.68 14.81 47.36 14.81L47.36 14.81L47.36 14.81Q47.05 14.81 46.81 14.77L46.81 14.77L46.81 14.77Q46.56 14.73 46.40 14.60L46.40 14.60L46.40 14.60Q46.23 14.48 46.14 14.26L46.14 14.26L46.14 14.26Q46.05 14.04 46.05 13.69L46.05 13.69ZM55.87 11.52L55.29 11.33L55.29 11.33Q54.67 11.12 54.17 10.90L54.17 10.90L54.17 10.90Q53.66 10.68 53.30 10.37L53.30 10.37L53.30 10.37Q52.93 10.07 52.73 9.64L52.73 9.64L52.73 9.64Q52.53 9.21 52.53 8.60L52.53 8.60L52.53 8.60Q52.53 7.41 53.44 6.69L53.44 6.69L53.44 6.69Q54.36 5.98 56.01 5.98L56.01 5.98L56.01 5.98Q56.62 5.98 57.13 6.06L57.13 6.06L57.13 6.06Q57.65 6.15 58.02 6.32L58.02 6.32L58.02 6.32Q58.39 6.50 58.60 6.77L58.60 6.77L58.60 6.77Q58.81 7.04 58.81 7.41L58.81 7.41L58.81 7.41Q58.81 7.77 58.65 8.03L58.65 8.03L58.65 8.03Q58.48 8.29 58.24 8.47L58.24 8.47L58.24 8.47Q57.93 8.27 57.41 8.13L57.41 8.13L57.41 8.13Q56.90 7.98 56.28 7.98L56.28 7.98L56.28 7.98Q55.65 7.98 55.36 8.16L55.36 8.16L55.36 8.16Q55.06 8.33 55.06 8.60L55.06 8.60L55.06 8.60Q55.06 8.81 55.24 8.94L55.24 8.94L55.24 8.94Q55.43 9.07 55.79 9.18L55.79 9.18L56.53 9.42L56.53 9.42Q57.85 9.84 58.55 10.49L58.55 10.49L58.55 10.49Q59.26 11.14 59.26 12.26L59.26 12.26L59.26 12.26Q59.26 13.45 58.32 14.19L58.32 14.19L58.32 14.19Q57.39 14.92 55.57 14.92L55.57 14.92L55.57 14.92Q54.92 14.92 54.37 14.82L54.37 14.82L54.37 14.82Q53.82 14.71 53.40 14.51L53.40 14.51L53.40 14.51Q52.99 14.31 52.76 14.01L52.76 14.01L52.76 14.01Q52.53 13.71 52.53 13.31L52.53 13.31L52.53 13.31Q52.53 12.91 52.77 12.62L52.77 12.62L52.77 12.62Q53.00 12.33 53.28 12.18L53.28 12.18L53.28 12.18Q53.68 12.49 54.24 12.71L54.24 12.71L54.24 12.71Q54.81 12.94 55.48 12.94L55.48 12.94L55.48 12.94Q56.17 12.94 56.45 12.73L56.45 12.73L56.45 12.73Q56.73 12.52 56.73 12.24L56.73 12.24L56.73 12.24Q56.73 11.96 56.50 11.81L56.50 11.81L56.50 11.81Q56.28 11.66 55.87 11.52L55.87 11.52ZM67.45 11.30L67.45 11.30L67.45 11.30Q67.45 12.17 67.19 12.85L67.19 12.85L67.19 12.85Q66.92 13.52 66.44 13.99L66.44 13.99L66.44 13.99Q65.95 14.45 65.28 14.69L65.28 14.69L65.28 14.69Q64.61 14.92 63.78 14.92L63.78 14.92L63.78 14.92Q62.96 14.92 62.29 14.67L62.29 14.67L62.29 14.67Q61.61 14.42 61.13 13.95L61.13 13.95L61.13 13.95Q60.65 13.48 60.38 12.81L60.38 12.81L60.38 12.81Q60.12 12.14 60.12 11.30L60.12 11.30L60.12 11.30Q60.12 10.47 60.38 9.80L60.38 9.80L60.38 9.80Q60.65 9.13 61.13 8.66L61.13 8.66L61.13 8.66Q61.61 8.19 62.29 7.94L62.29 7.94L62.29 7.94Q62.96 7.69 63.78 7.69L63.78 7.69L63.78 7.69Q64.61 7.69 65.28 7.95L65.28 7.95L65.28 7.95Q65.95 8.20 66.44 8.67L66.44 8.67L66.44 8.67Q66.92 9.14 67.19 9.81L67.19 9.81L67.19 9.81Q67.45 10.49 67.45 11.30ZM62.55 11.30L62.55 11.30L62.55 11.30Q62.55 12.15 62.88 12.61L62.88 12.61L62.88 12.61Q63.21 13.06 63.80 13.06L63.80 13.06L63.80 13.06Q64.39 13.06 64.70 12.60L64.70 12.60L64.70 12.60Q65.02 12.14 65.02 11.30L65.02 11.30L65.02 11.30Q65.02 10.46 64.69 10.00L64.69 10.00L64.69 10.00Q64.37 9.55 63.78 9.55L63.78 9.55L63.78 9.55Q63.20 9.55 62.87 10.00L62.87 10.00L62.87 10.00Q62.55 10.46 62.55 11.30ZM68.64 13.69L68.64 7.90L68.64 7.90Q68.64 7.18 68.89 6.67L68.89 6.67L68.89 6.67Q69.13 6.16 69.55 5.83L69.55 5.83L69.55 5.83Q69.97 5.50 70.54 5.35L70.54 5.35L70.54 5.35Q71.11 5.19 71.75 5.19L71.75 5.19L71.75 5.19Q72.79 5.19 73.28 5.47L73.28 5.47L73.28 5.47Q73.77 5.74 73.77 6.40L73.77 6.40L73.77 6.40Q73.77 6.68 73.65 6.90L73.65 6.90L73.65 6.90Q73.53 7.13 73.39 7.24L73.39 7.24L73.39 7.24Q73.12 7.17 72.83 7.12L72.83 7.12L72.83 7.12Q72.55 7.07 72.17 7.07L72.17 7.07L72.17 7.07Q71.57 7.07 71.23 7.27L71.23 7.27L71.23 7.27Q70.90 7.48 70.90 7.98L70.90 7.98L70.90 8.43L73.19 8.43L73.19 8.43Q73.28 8.58 73.35 8.81L73.35 8.81L73.35 8.81Q73.43 9.04 73.43 9.32L73.43 9.32L73.43 9.32Q73.43 9.81 73.21 10.03L73.21 10.03L73.21 10.03Q73.00 10.25 72.63 10.25L72.63 10.25L71.02 10.25L71.02 14.69L71.02 14.69Q70.88 14.73 70.58 14.77L70.58 14.77L70.58 14.77Q70.28 14.81 69.96 14.81L69.96 14.81L69.96 14.81Q69.65 14.81 69.41 14.77L69.41 14.77L69.41 14.77Q69.16 14.73 68.99 14.60L68.99 14.60L68.99 14.60Q68.82 14.48 68.73 14.26L68.73 14.26L68.73 14.26Q68.64 14.04 68.64 13.69L68.64 13.69ZM77.01 10.25L77.01 12.36L77.01 12.36Q77.01 12.73 77.24 12.88L77.24 12.88L77.24 12.88Q77.48 13.03 77.90 13.03L77.90 13.03L77.90 13.03Q78.11 13.03 78.33 13.00L78.33 13.00L78.33 13.00Q78.55 12.96 78.72 12.91L78.72 12.91L78.72 12.91Q78.85 13.06 78.94 13.25L78.94 13.25L78.94 13.25Q79.03 13.44 79.03 13.71L79.03 13.71L79.03 13.71Q79.03 14.24 78.63 14.57L78.63 14.57L78.63 14.57Q78.23 14.91 77.22 14.91L77.22 14.91L77.22 14.91Q75.99 14.91 75.33 14.35L75.33 14.35L75.33 14.35Q74.66 13.79 74.66 12.53L74.66 12.53L74.66 6.54L74.66 6.54Q74.82 6.50 75.10 6.45L75.10 6.45L75.10 6.45Q75.39 6.40 75.71 6.40L75.71 6.40L75.71 6.40Q76.33 6.40 76.67 6.62L76.67 6.62L76.67 6.62Q77.01 6.83 77.01 7.53L77.01 7.53L77.01 8.43L78.85 8.43L78.85 8.43Q78.93 8.58 79.01 8.81L79.01 8.81L79.01 8.81Q79.09 9.04 79.09 9.32L79.09 9.32L79.09 9.32Q79.09 9.81 78.87 10.03L78.87 10.03L78.87 10.03Q78.65 10.25 78.29 10.25L78.29 10.25L77.01 10.25ZM84.11 14.49L84.11 14.49L84.11 14.49Q83.92 14.66 83.58 14.76L83.58 14.76L83.58 14.76Q83.24 14.87 82.78 14.87L82.78 14.87L82.78 14.87Q82.21 14.87 81.79 14.71L81.79 14.71L81.79 14.71Q81.37 14.55 81.23 14.25L81.23 14.25L81.23 14.25Q81.07 13.92 80.87 13.19L80.87 13.19L80.87 13.19Q80.67 12.46 80.47 11.59L80.47 11.59L80.47 11.59Q80.28 10.72 80.10 9.83L80.10 9.83L80.10 9.83Q79.93 8.93 79.83 8.25L79.83 8.25L79.83 8.25Q80.02 8.05 80.35 7.90L80.35 7.90L80.35 7.90Q80.68 7.76 81.07 7.76L81.07 7.76L81.07 7.76Q81.56 7.76 81.88 7.97L81.88 7.97L81.88 7.97Q82.19 8.19 82.26 8.72L82.26 8.72L82.26 8.72Q82.40 9.79 82.50 10.48L82.50 10.48L82.50 10.48Q82.60 11.17 82.66 11.61L82.66 11.61L82.66 11.61Q82.73 12.05 82.76 12.29L82.76 12.29L82.76 12.29Q82.80 12.52 82.82 12.66L82.82 12.66L82.88 12.66L82.88 12.66Q82.92 12.43 83.03 12.01L83.03 12.01L83.03 12.01Q83.13 11.58 83.27 11.03L83.27 11.03L83.27 11.03Q83.41 10.49 83.57 9.85L83.57 9.85L83.57 9.85Q83.72 9.21 83.87 8.58L83.87 8.58L83.87 8.58Q84.15 8.43 84.43 8.34L84.43 8.34L84.43 8.34Q84.70 8.26 85.11 8.26L85.11 8.26L85.11 8.26Q85.60 8.26 85.95 8.41L85.95 8.41L85.95 8.41Q86.30 8.57 86.39 8.89L86.39 8.89L86.39 8.89Q86.56 9.51 86.72 10.09L86.72 10.09L86.72 10.09Q86.87 10.67 87.00 11.17L87.00 11.17L87.00 11.17Q87.12 11.66 87.22 12.05L87.22 12.05L87.22 12.05Q87.32 12.43 87.36 12.66L87.36 12.66L87.43 12.66L87.43 12.66Q87.58 11.58 87.73 10.42L87.73 10.42L87.73 10.42Q87.88 9.25 88.00 8.05L88.00 8.05L88.00 8.05Q88.26 7.90 88.54 7.83L88.54 7.83L88.54 7.83Q88.82 7.76 89.10 7.76L89.10 7.76L89.10 7.76Q89.59 7.76 89.91 7.97L89.91 7.97L89.91 7.97Q90.23 8.18 90.23 8.69L90.23 8.69L90.23 8.69Q90.23 8.92 90.16 9.37L90.16 9.37L90.16 9.37Q90.09 9.81 89.98 10.37L89.98 10.37L89.98 10.37Q89.87 10.93 89.72 11.55L89.72 11.55L89.72 11.55Q89.57 12.17 89.42 12.74L89.42 12.74L89.42 12.74Q89.28 13.31 89.14 13.78L89.14 13.78L89.14 13.78Q89.01 14.24 88.91 14.49L88.91 14.49L88.91 14.49Q88.72 14.66 88.31 14.76L88.31 14.76L88.31 14.76Q87.91 14.87 87.44 14.87L87.44 14.87L87.44 14.87Q86.27 14.87 86.06 14.28L86.06 14.28L86.06 14.28Q85.97 14.03 85.85 13.64L85.85 13.64L85.85 13.64Q85.72 13.26 85.58 12.80L85.58 12.80L85.58 12.80Q85.44 12.33 85.32 11.84L85.32 11.84L85.32 11.84Q85.19 11.34 85.11 10.88L85.11 10.88L85.11 10.88Q85.01 11.37 84.87 11.89L84.87 11.89L84.87 11.89Q84.73 12.42 84.58 12.92L84.58 12.92L84.58 12.92Q84.43 13.41 84.31 13.83L84.31 13.83L84.31 13.83Q84.18 14.24 84.11 14.49ZM94.22 13.19L94.22 13.19L94.22 13.19Q94.46 13.19 94.74 13.14L94.74 13.14L94.74 13.14Q95.03 13.09 95.17 13.01L95.17 13.01L95.17 11.89L94.16 11.97L94.16 11.97Q93.77 12.00 93.52 12.14L93.52 12.14L93.52 12.14Q93.27 12.28 93.27 12.56L93.27 12.56L93.27 12.56Q93.27 12.84 93.48 13.01L93.48 13.01L93.48 13.01Q93.70 13.19 94.22 13.19ZM94.11 7.69L94.11 7.69L94.11 7.69Q94.86 7.69 95.49 7.84L95.49 7.84L95.49 7.84Q96.11 7.99 96.55 8.31L96.55 8.31L96.55 8.31Q96.99 8.62 97.23 9.11L97.23 9.11L97.23 9.11Q97.47 9.59 97.47 10.25L97.47 10.25L97.47 13.38L97.47 13.38Q97.47 13.75 97.26 13.98L97.26 13.98L97.26 13.98Q97.06 14.21 96.78 14.38L96.78 14.38L96.78 14.38Q95.87 14.92 94.22 14.92L94.22 14.92L94.22 14.92Q93.48 14.92 92.88 14.78L92.88 14.78L92.88 14.78Q92.29 14.64 91.86 14.36L91.86 14.36L91.86 14.36Q91.43 14.08 91.20 13.65L91.20 13.65L91.20 13.65Q90.97 13.22 90.97 12.64L90.97 12.64L90.97 12.64Q90.97 11.68 91.55 11.16L91.55 11.16L91.55 11.16Q92.12 10.64 93.32 10.51L93.32 10.51L95.16 10.32L95.16 10.22L95.16 10.22Q95.16 9.81 94.80 9.64L94.80 9.64L94.80 9.64Q94.44 9.46 93.77 9.46L93.77 9.46L93.77 9.46Q93.24 9.46 92.74 9.58L92.74 9.58L92.74 9.58Q92.23 9.69 91.83 9.86L91.83 9.86L91.83 9.86Q91.64 9.73 91.52 9.47L91.52 9.47L91.52 9.47Q91.39 9.21 91.39 8.93L91.39 8.93L91.39 8.93Q91.39 8.57 91.57 8.35L91.57 8.35L91.57 8.35Q91.74 8.13 92.11 7.98L92.11 7.98L92.11 7.98Q92.51 7.83 93.06 7.76L93.06 7.76L93.06 7.76Q93.62 7.69 94.11 7.69ZM101.30 9.91L101.30 14.69L101.30 14.69Q101.16 14.73 100.86 14.77L100.86 14.77L100.86 14.77Q100.56 14.81 100.24 14.81L100.24 14.81L100.24 14.81Q99.93 14.81 99.69 14.77L99.69 14.77L99.69 14.77Q99.44 14.73 99.27 14.60L99.27 14.60L99.27 14.60Q99.11 14.48 99.01 14.26L99.01 14.26L99.01 14.26Q98.92 14.04 98.92 13.69L98.92 13.69L98.92 9.49L98.92 9.49Q98.92 9.17 99.04 8.94L99.04 8.94L99.04 8.94Q99.16 8.71 99.39 8.53L99.39 8.53L99.39 8.53Q99.61 8.34 99.94 8.20L99.94 8.20L99.94 8.20Q100.27 8.05 100.65 7.94L100.65 7.94L100.65 7.94Q101.02 7.83 101.43 7.76L101.43 7.76L101.43 7.76Q101.84 7.70 102.24 7.70L102.24 7.70L102.24 7.70Q102.91 7.70 103.31 7.96L103.31 7.96L103.31 7.96Q103.70 8.22 103.70 8.81L103.70 8.81L103.70 8.81Q103.70 9.00 103.64 9.19L103.64 9.19L103.64 9.19Q103.59 9.38 103.50 9.53L103.50 9.53L103.50 9.53Q103.21 9.53 102.90 9.56L102.90 9.56L102.90 9.56Q102.59 9.59 102.30 9.65L102.30 9.65L102.30 9.65Q102.00 9.70 101.74 9.77L101.74 9.77L101.74 9.77Q101.49 9.83 101.30 9.91L101.30 9.91ZM108.28 14.92L108.28 14.92L108.28 14.92Q107.45 14.92 106.74 14.69L106.74 14.69L106.74 14.69Q106.04 14.46 105.51 14.00L105.51 14.00L105.51 14.00Q104.99 13.54 104.68 12.84L104.68 12.84L104.68 12.84Q104.38 12.14 104.38 11.20L104.38 11.20L104.38 11.20Q104.38 10.28 104.68 9.61L104.68 9.61L104.68 9.61Q104.99 8.95 105.48 8.52L105.48 8.52L105.48 8.52Q105.97 8.09 106.60 7.89L106.60 7.89L106.60 7.89Q107.23 7.69 107.88 7.69L107.88 7.69L107.88 7.69Q108.63 7.69 109.23 7.91L109.23 7.91L109.23 7.91Q109.84 8.13 110.28 8.53L110.28 8.53L110.28 8.53Q110.73 8.92 110.97 9.46L110.97 9.46L110.97 9.46Q111.22 10.01 111.22 10.65L111.22 10.65L111.22 10.65Q111.22 11.13 110.95 11.38L110.95 11.38L110.95 11.38Q110.68 11.63 110.21 11.70L110.21 11.70L106.75 12.22L106.75 12.22Q106.90 12.68 107.38 12.92L107.38 12.92L107.38 12.92Q107.86 13.15 108.47 13.15L108.47 13.15L108.47 13.15Q109.05 13.15 109.56 13.00L109.56 13.00L109.56 13.00Q110.07 12.85 110.39 12.66L110.39 12.66L110.39 12.66Q110.61 12.80 110.77 13.05L110.77 13.05L110.77 13.05Q110.92 13.30 110.92 13.58L110.92 13.58L110.92 13.58Q110.92 14.21 110.33 14.52L110.33 14.52L110.33 14.52Q109.89 14.76 109.33 14.84L109.33 14.84L109.33 14.84Q108.77 14.92 108.28 14.92ZM107.88 9.42L107.88 9.42L107.88 9.42Q107.55 9.42 107.30 9.53L107.30 9.53L107.30 9.53Q107.06 9.65 106.90 9.82L106.90 9.82L106.90 9.82Q106.75 10.00 106.67 10.21L106.67 10.21L106.67 10.21Q106.60 10.43 106.58 10.65L106.58 10.65L108.98 10.26L108.98 10.26Q108.93 9.98 108.67 9.70L108.67 9.70L108.67 9.70Q108.40 9.42 107.88 9.42Z"></path></g><defs data-v-fde0c5aa=""><!----></defs><g data-v-fde0c5aa="" id="e6ac5bec-eb0b-4efc-9cff-8b57754b3e01" stroke="none" fill="#FF428A" transform="matrix(1.4310118166197066,0,0,1.4310118166197066,127.10381093408469,106.65571640112705)"><path d="M11.579 32H32L21.789 14.314z"></path><circle cx="8.683" cy="8.683" r="8.683"></circle></g><!----></svg>